<svg xmlns="http://www.w3.org/2000/svg" xmlns:xlink="http://www.w3.org/1999/xlink" version="1.1" width="30" height="30" viewBox="0 0 256 256" xml:space="preserve">
<g style="stroke: none; stroke-width: 0; stroke-dasharray: none; stroke-linecap: butt; stroke-linejoin: miter; stroke-miterlimit: 10; fill: none; fill-rule: nonzero; opacity: 1;" transform="translate(1.4065934065934016 1.4065934065934016) scale(2.81 2.81)">
	<path d="M 79.386 90 c -2.834 0 -5.5 -1.104 -7.504 -3.109 L 34.857 49.867 c -9.472 3.574 -20.127 1.296 -27.314 -5.891 C 0.619 37.053 -1.76 26.959 1.333 17.634 c 0.109 -0.329 0.381 -0.578 0.719 -0.658 c 0.337 -0.079 0.693 0.021 0.937 0.266 l 11.707 11.707 c 1.944 1.943 4.538 3.001 7.279 2.951 c 2.748 -0.041 5.302 -1.168 7.19 -3.174 c 3.694 -3.922 3.45 -10.363 -0.544 -14.358 L 17.242 2.989 c -0.245 -0.245 -0.346 -0.6 -0.266 -0.937 c 0.08 -0.337 0.329 -0.609 0.658 -0.719 c 9.325 -3.094 19.418 -0.714 26.342 6.209 c 7.189 7.188 9.466 17.842 5.891 27.314 l 37.024 37.024 l 0 0 C 88.896 73.886 90 76.551 90 79.386 c 0 2.835 -1.104 5.501 -3.109 7.505 C 84.887 88.896 82.221 90 79.386 90 z M 35.101 47.697 c 0.26 0 0.516 0.102 0.707 0.293 l 37.487 37.487 C 74.922 87.104 77.085 88 79.386 88 c 2.301 0 4.465 -0.896 6.092 -2.523 C 87.104 83.851 88 81.687 88 79.386 c 0 -2.3 -0.896 -4.464 -2.523 -6.091 L 47.99 35.808 c -0.284 -0.284 -0.371 -0.711 -0.22 -1.084 c 3.613 -8.878 1.567 -18.993 -5.209 -25.768 C 36.567 2.961 27.993 0.66 19.845 2.765 l 10.189 10.189 c 4.751 4.752 5.014 12.442 0.586 17.143 c -2.262 2.402 -5.322 3.753 -8.616 3.803 c -3.289 0.072 -6.392 -1.206 -8.723 -3.536 L 2.765 19.845 c -2.104 8.146 0.196 16.722 6.191 22.717 c 6.776 6.777 16.89 8.822 25.768 5.209 C 34.847 47.722 34.974 47.697 35.101 47.697 z" style="stroke: black; stroke-width: 2; stroke-dasharray: none; stroke-linecap: butt; stroke-linejoin: miter; stroke-miterlimit: 10; fill: rgb(0,0,0); fill-rule: nonzero; opacity: 1;" transform=" matrix(1 0 0 1 0 0) " stroke-linecap="round"/>
</g>
</svg>